# xmcd
#
# Track frame offsets: 
#        150
#        12860
#        27046
#        44184
#        57938
#        72016
#        83106
#        98732
#        110794
#        132288
#        147878
#        159328
#        170634
#        187880
#        208366
#        224928
#        244658
#        253300
#        272022
#
# Disc length: 3941 seconds
#
# Revision: 0
# Processed by: cddbd v1.5.2PL0 Copyright (c) Steve Scherf et al.
# Submitted via: ExactAudioCopy v1.0b3
#
DISCID=210f6313
DTITLE=Wendel Adkins - Live At Whiskey River
DYEAR=1979
DGENRE=country
TTITLE0=I Will 
TTITLE1=Show Me The Way
TTITLE2=Willie Didn't Win
TTITLE3=Flying Too High
TTITLE4=Texas Moon
TTITLE5=Laid Back Country Picker 
TTITLE6=The Morning After The Night Before 
TTITLE7=I Don't Like Leaving You
TTITLE8=Desperate Cowboy
TTITLE9="T" For Texas 
TTITLE10=Back To Luckenbach  
TTITLE11=Texas (When I Die) 
TTITLE12=Me And The Boys In The Band
TTITLE13=California Blues
TTITLE14=If This Is Just A Game 
TTITLE15=Willie And Laura Mae Jones
TTITLE16=That's All Right Mama - My Baby Left Me
TTITLE17=Song For You 
TTITLE18=Can't You See - If That Aint Country
EXTD=
EXTT0=
EXTT1=
EXTT2=
EXTT3=
EXTT4=
EXTT5=
EXTT6=
EXTT7=
EXTT8=
EXTT9=
EXTT10=
EXTT11=
EXTT12=
EXTT13=
EXTT14=
EXTT15=
EXTT16=
EXTT17=
EXTT18=
PLAYORDER=
